PathFileType	4	(X/Y/Z)	D:\TRACE\v60_Jaco2_6-2-23\BothDRS_Motion3_6-v60.trc
DataRate	CameraRate	NumFrames	NumMarkers	Units	OrigDataRate	OrigDataStartFrame	OrigNumFrames
100.00	100.00	      14	9	mm	100.00	6126	      7000
Frame#	Time	front left toe			Front right toe			aft left toe			aft right toe			Arm			FL body			FR body			AL Body			AR Body			
		X1	Y1	Z1	X2	Y2	Z2	X3	Y3	Z3	X4	Y4	Z4	X5	Y5	Z5	X6	Y6	Z6	X7	Y7	Z7	X8	Y8	Z8	X9	Y9	Z9	

6126	61.250	-200.92996	41.37706	-22.57400	216.01135	15.22269	-43.29718	-149.90727	6.86670	588.09869	176.28513	22.72799	595.62238	-6.08226	1136.76843	-367.54663	-70.39101	515.15576	-203.85625	88.02996	513.16425	-204.60381	-56.45397	542.83380	740.58020	94.72264	531.20453	739.25757	
6127	61.260	-202.44208	34.86919	-24.17666	216.11189	15.19207	-43.38963	-149.84224	7.00991	588.06995	175.01813	15.94517	593.79114	-5.75691	1136.53479	-367.75262	-71.11819	514.90155	-203.91074	87.18358	512.93622	-204.83308	-58.09216	542.86578	740.01929	93.19992	531.37195	739.06885	
6128	61.270	-203.96443	29.07004	-25.66169	216.15678	15.18224	-43.44526	-149.80489	7.24723	587.98230	173.70876	9.79310	591.99554	-5.42000	1136.34045	-368.10220	-71.97397	515.00360	-204.32619	86.86686	512.90186	-205.42194	-59.22597	542.68988	739.45618	90.72185	530.94861	738.06427	
6129	61.280	-205.24706	23.21969	-27.35469	215.04356	14.87336	-43.71268	-149.80991	7.36770	587.83868	173.78799	10.49297	589.67322	-4.65881	1136.03406	-368.59930	-72.67677	515.13983	-205.15750	86.02270	512.82147	-205.81226	-60.91590	542.85278	739.27734	89.30220	530.97906	737.57611	
6130	61.290	-206.09848	17.75052	-29.26877	216.52582	15.35782	-43.42307	-150.12630	7.39339	587.48273	174.17944	8.71827	591.17529	-3.90680	1135.65686	-369.21466	-73.40807	514.86920	-205.69896	85.30065	512.39368	-206.23898	-62.61144	543.59247	738.51880	87.55991	531.88629	737.37421	
6131	61.300	-207.61665	18.14765	-30.79094	215.34882	14.96078	-43.59402	-150.34464	7.27112	587.65057	174.97693	9.50706	589.98639	-3.49032	1135.11121	-369.74146	-74.03658	514.01178	-206.12628	84.17644	511.84363	-206.00021	-64.14728	544.95386	738.13904	85.48447	533.38519	737.07288	
6132	61.310	-207.46603	17.18935	-30.22950	215.27234	15.45910	-43.52146	-150.44333	7.20969	587.28870	174.98914	10.63139	591.60449	-3.61549	1134.67090	-371.52628	-74.44431	514.25146	-206.64575	84.22751	511.93311	-206.67987	-65.91748	546.35999	737.30878	83.79805	534.65784	736.60126	
6133	61.320	-207.35155	14.89071	-30.10841	215.78938	18.08008	-44.20205	-151.18480	9.89968	586.31812	174.44862	10.72382	591.02423	-3.57424	1134.12024	-373.48639	-74.94640	515.39856	-207.14497	84.04982	512.47858	-206.95914	-67.79242	546.98621	736.95685	82.57459	535.61401	736.99292	
6134	61.330	-207.58797	14.85039	-29.68583	211.48784	20.97121	-42.42065	-148.39734	13.26868	587.95508	174.50873	9.62925	591.08411	-3.54102	1133.14368	-375.32477	-75.16406	516.58246	-207.58685	82.94089	514.07922	-206.93373	-69.01838	547.64874	736.69580	80.78056	535.88342	736.10736	
6135	61.340	-207.09515	15.55344	-31.02306	207.01788	23.54758	-39.75100	-146.76360	17.37868	589.93225	174.88490	10.51611	590.65979	-3.16097	1132.24756	-376.40543	-75.65594	517.41626	-208.34973	83.10354	514.55621	-207.85548	-70.41688	548.02429	735.70746	79.49695	536.41437	735.54193	
6136	61.350	-207.04724	15.35149	-31.15376	205.60153	32.43111	-38.89782	-143.89194	26.53229	589.02783	174.83034	10.58135	590.63318	-2.38954	1132.14807	-376.78555	-76.05692	517.29248	-208.60103	82.64519	514.58136	-208.26709	-71.22112	548.75769	735.44122	79.14429	537.39203	735.87811	
6137	61.360	-207.09747	14.62680	-30.76097	204.56516	40.96552	-38.89011	-142.86763	36.37648	588.67151	174.76961	10.89905	590.61340	-1.56191	1133.15845	-376.79373	-76.97675	517.13214	-209.23561	81.90933	514.18835	-208.77577	-72.49952	549.47864	734.83655	77.65505	537.77600	734.59332	
6138	61.370	-206.99033	14.35483	-30.54903	203.21461	52.04409	-40.72447	-143.89923	48.11374	587.35394	175.19485	10.91412	590.63171	-0.78806	1134.15771	-376.15891	-77.89707	516.45038	-209.96558	81.13733	513.79358	-209.41458	-72.69678	549.72540	734.11853	76.91354	538.23712	733.91699	
6139	61.380	-206.86301	14.44773	-30.61732	205.73096	64.19948	-41.03930	-146.48532	59.63620	586.20032	175.54752	10.96603	590.57233	-0.21658	1135.05371	-375.87665	-78.64136	516.20026	-210.28468	80.19407	513.57178	-209.80206	-72.64135	549.96112	733.83636	77.43136	538.59387	733.97510	
